<?xml version="1.0" encoding="iso-8859-1"?>
<!-- Generator: Adobe Illustrator 19.1.1, SVG Export Plug-In . SVG Version: 6.00 Build 0)  -->
<svg xmlns="http://www.w3.org/2000/svg" xmlns:xlink="http://www.w3.org/1999/xlink" version="1.1" id="Layer_1" x="0px" y="0px" viewBox="0 0 50 50" style="enable-background:new 0 0 50 50;" xml:space="preserve" width="1024px" height="1024px">
<path style="fill:none;stroke:#000000;stroke-width:2;stroke-miterlimit:10;" d="M23,11V9c0-1.1,0.9-2,2-2l0,0c1.1,0,2,0.9,2,2v2"/>
<path d="M39,39H11c-0.369,0-0.708-0.203-0.882-0.528c-0.174-0.325-0.155-0.72,0.05-1.026l1.813-2.719  c0.738-1.232,2.02-3.692,2.02-5.864v-7.8C14,14.549,18.523,10,25,10s11,4.605,11,11.2V29c0,1.587,0.669,3.473,2.045,5.767  l1.787,2.679c0.205,0.307,0.224,0.701,0.05,1.026C39.708,38.797,39.369,39,39,39z"/>
<path style="fill:none;stroke:#000000;stroke-width:2;stroke-miterlimit:10;" d="M41.333,31.333C42.933,28.667,44,25.467,44,22  s-0.933-6.533-2.667-9.333"/>
<path style="fill:none;stroke:#000000;stroke-width:2;stroke-miterlimit:10;" d="M45.667,34C47.8,30.533,49,26.4,49,22  s-1.2-8.533-3.333-12"/>
<path style="fill:none;stroke:#000000;stroke-width:2;stroke-miterlimit:10;" d="M8.667,31.333C7.067,28.667,6,25.467,6,22  s0.933-6.533,2.667-9.333"/>
<path style="fill:none;stroke:#000000;stroke-width:2;stroke-miterlimit:10;" d="M4.333,34C2.2,30.533,1,26.4,1,22  s1.2-8.533,3.333-12"/>
<path d="M20.424,41c0.774,1.763,2.531,3,4.576,3s3.802-1.237,4.576-3H20.424z"/>
</svg>
